<?xml version="1.0" encoding="utf-8"?>
<!-- Generator: Adobe Illustrator 25.2.1, SVG Export Plug-In . SVG Version: 6.00 Build 0)  -->
<svg version="1.1" id="Capa_1" xmlns="http://www.w3.org/2000/svg" xmlns:xlink="http://www.w3.org/1999/xlink" x="0px" y="0px"
	 viewBox="0 0 113.39 113.39" style="enable-background:new 0 0 113.39 113.39;" xml:space="preserve">
<style type="text/css">
	.st0{fill:#E99C67;}
	.st1{fill:#3B578A;}
	.st2{fill:#4B6EAE;}
	.st3{fill:#E2905A;}
	.st4{fill:#F4EEEA;}
	.st5{fill:#FFFFFF;}
	.st6{opacity:0.38;fill:#406082;}
</style>
<path class="st0" d="M49.43,23.59"/>
<path class="st1" d="M99.53,78.68c-2.56,4.27-5.89,9.02-10.21,13.82c-9.61,10.67-20,17.02-27.51,20.71
	c-9.4-2.83-22.3-7.89-35.7-17.3C17.14,89.62,10.23,82.99,5.1,77.29c3.83-15.76,4.24-28.38,3.82-37.25
	c-0.3-6.34-0.87-15.88-2.15-25.43c-0.19-1.42-0.36-2.59-0.48-3.38c3.79-3.37,7.59-6.74,11.38-10.11
	c7.32,3.73,22.55,10.23,42.58,9.55c14.76-0.5,26.29-4.71,33.19-7.88c3.47,2.07,6.95,4.13,10.42,6.2v0.02
	c0.64,15.15-0.44,26.16-1.48,37.38C101.73,53.46,100.78,63.93,99.53,78.68z"/>
<path class="st2" d="M96.01,77c-2.36,3.93-5.43,8.31-9.41,12.74c-8.85,9.84-18.44,15.69-25.36,19.09
	c-8.67-2.61-20.55-7.28-32.91-15.95c-8.27-5.8-14.64-11.91-19.37-17.17c3.53-14.53,3.91-26.16,3.52-34.34
	c-0.27-5.85-0.8-14.64-1.98-23.44c-0.18-1.31-0.33-2.38-0.44-3.12c3.5-3.11,6.99-6.21,10.49-9.32c6.75,3.44,20.79,9.44,39.25,8.8
	c13.61-0.47,24.23-4.35,30.6-7.26c3.2,1.9,6.4,3.81,9.6,5.71v0.02c0.59,13.97-0.4,24.12-1.36,34.46
	C98.04,53.75,97.17,63.41,96.01,77z"/>
<path class="st3" d="M118-42"/>
<g>
	<path class="st4" d="M21.43,65.71L21.43,65.71L21.43,65.71L18,78c2.56,2.89,6.42,6.85,11.71,10.86c1.63,1.24,4.99,3.3,11.71,7.43
		c7.32,4.49,12.24,7.29,19.06,9.4c0.04,0.01,0.07,0.02,0.08,0.03l0,0c9.67-8.4,14.29-10.68,18.79-14.79c5.64-5.16,8.42-10.79,9-12
		C93.4,68.4,92.62,57.75,92,54.95v-0.02c0,0.01,0,0.01,0,0.02c-0.08,0.26-5.94-1.25-17.57-4.52c4.15-3.88,8.61-7.79,13.38-11.7
		c1.84-1.5,3.66-2.96,5.47-4.37c0,0,0.25-7.8,0.64-19.93c0,0,0,0-0.01,0C88.04,16.29,73,20.87,54,19.14
		c-12.57-1.14-23.03-4.7-30.86-8.29c2,5.05,4,10.1,6,15.14c6.91,2.02,17.3,4.13,29.86,3.21c7.55-0.55,13.99-2.05,19.07-3.64
		c-2.52,7.13-3.86,10.93-3.86,10.93s-9.17,2.93-26.14,8.36c-0.06,2.41-0.13,4.84-0.21,7.29c-0.07,2.01-0.14,4.01-0.21,6
		c5.77,1.34,11.7,2.63,17.79,3.86c5.38,1.09,10.67,2.09,15.86,3c0,0-1.31,11.84-8.14,18.86C67.91,89.23,59.21,92,59.21,92
		s-11.57-1.98-20.79-8.57c-3.71-2.65-6.42-5.61-10.71-10.29C25,70.19,22.89,67.58,21.43,65.71z"/>
	<g>
		<path class="st5" d="M18.93,65.71c0.05-1.14,0.06-0.54-0.07-0.1c-0.16,0.56-0.31,1.12-0.47,1.67c-0.44,1.58-0.88,3.16-1.32,4.73
			c-0.39,1.41-0.79,2.82-1.18,4.24c-0.09,0.32-0.2,0.65-0.27,0.98c-0.31,1.39,0.35,2.24,1.21,3.2c3.63,4.01,7.67,7.75,12.07,10.91
			c3.34,2.4,6.95,4.45,10.45,6.6c4.95,3.04,9.92,6.04,15.3,8.28c1.26,0.52,2.53,1,3.83,1.44c0.58,0.19,1.16,0.44,1.77,0.51
			c1.06,0.12,1.72-0.38,2.47-1.01c2.17-1.82,4.32-3.65,6.56-5.39c3.14-2.42,6.43-4.64,9.54-7.11c3.86-3.07,7.17-6.82,9.78-11.01
			c2.89-4.63,4.77-9.9,5.66-15.28c0.47-2.81,0.73-5.65,0.69-8.5c-0.01-1.03-0.06-2.06-0.17-3.08c-0.06-0.54-0.13-1.09-0.21-1.63
			c-0.04-0.28-0.22-1.38-0.07-0.23c-0.17-1.34-1.03-2.5-2.5-2.5c-1.22,0-2.67,1.15-2.5,2.5c0,0.01,0,0.01,0,0.02
			c0.11-0.42,0.23-0.84,0.34-1.26c0,0,0,0.01-0.01,0.01c0.3-0.3,0.6-0.6,0.9-0.9c0.22-0.13,1.23-0.33,1.06-0.33
			c-0.34,0,0.75,0.15,0.32,0.04c-0.31-0.08-0.64-0.12-0.95-0.19c-1.15-0.26-2.3-0.55-3.45-0.85c-4.22-1.1-8.43-2.27-12.63-3.46
			c0.37,1.39,0.74,2.79,1.1,4.18c5.71-5.32,11.63-10.4,17.77-15.22c1.02-0.8,1.74-1.44,1.83-2.8c0.03-0.47,0.03-0.95,0.05-1.42
			c0.07-2.1,0.14-4.2,0.2-6.3c0.13-4.01,0.26-8.01,0.39-12.02c0.05-1.59-1.64-2.89-3.16-2.41C75.72,17.55,57.14,18.75,39.25,14
			c-5.08-1.35-10.06-3.12-14.84-5.3c-0.93-0.43-1.93-0.48-2.78,0.2c-0.72,0.57-1.26,1.7-0.9,2.63c1.94,4.89,3.86,9.8,5.82,14.68
			c0.56,1.4,1.16,1.99,2.61,2.4c0.83,0.23,1.65,0.46,2.49,0.67c1.7,0.43,3.42,0.8,5.15,1.13c9.24,1.73,18.66,1.97,27.98,0.69
			c4.73-0.65,9.4-1.69,13.96-3.11c-1.03-1.03-2.05-2.05-3.08-3.08c-1.29,3.64-2.57,7.29-3.86,10.93c0.58-0.58,1.16-1.16,1.75-1.75
			c-8.71,2.79-17.43,5.57-26.14,8.36c-1.08,0.34-1.81,1.27-1.84,2.41c-0.12,4.43-0.26,8.86-0.43,13.29
			c-0.04,1.05,0.8,2.17,1.84,2.41c11.15,2.58,22.37,4.87,33.64,6.86c-0.61-0.8-1.22-1.61-1.84-2.41c-0.02,0.16,0.05,0.36,0.01-0.08
			c-0.04-0.55-0.03,0.19-0.07,0.42c-0.14,0.84-0.3,1.68-0.49,2.52c-0.55,2.41-1.26,4.83-2.26,7.09c-1.25,2.83-2.87,5.51-5.12,7.66
			c-2.21,2.12-4.89,3.71-7.63,5.05c-0.64,0.32-1.3,0.61-1.95,0.9c-0.5,0.22-0.06,0.03-0.52,0.22c-0.22,0.09-0.45,0.18-0.67,0.27
			c-0.51,0.19-1.01,0.38-1.53,0.55c0.44,0,0.89,0,1.33,0c-4.03-0.7-8.07-2.01-11.81-3.64c-3.25-1.42-6.44-3.15-9.25-5.33
			c-2.68-2.07-5.01-4.57-7.31-7.05c-2.89-3.11-5.7-6.28-8.31-9.63c-0.83-1.07-2.66-0.87-3.54,0c-1.05,1.05-0.83,2.47,0,3.54
			c2.39,3.06,4.93,5.96,7.56,8.81c2.46,2.68,4.95,5.37,7.79,7.65c5.66,4.54,12.42,7.56,19.39,9.49c1.36,0.38,2.75,0.74,4.14,0.97
			c1.81,0.3,3.91-0.95,5.5-1.65c6.35-2.81,11.89-6.96,15.21-13.17c2.4-4.49,3.93-9.54,4.53-14.59c0.12-0.99-0.85-2.24-1.84-2.41
			c-11.27-1.99-22.49-4.28-33.64-6.86c0.61,0.8,1.22,1.61,1.84,2.41c0.17-4.43,0.31-8.86,0.43-13.29c-0.61,0.8-1.22,1.61-1.84,2.41
			c7.06-2.26,14.11-4.51,21.17-6.77c1.48-0.47,2.96-0.95,4.44-1.42c0.18-0.06,0.36-0.11,0.54-0.17c1.19-0.44,1.6-1.32,1.97-2.39
			c1.21-3.43,2.42-6.86,3.63-10.28c0.63-1.79-1.33-3.62-3.08-3.08c-15.48,4.83-32.03,4.95-47.6,0.43c0.58,0.58,1.16,1.16,1.75,1.75
			c-2-5.05-4-10.1-6-15.14c-1.22,0.94-2.45,1.88-3.67,2.82c19.74,9.01,41.71,11.22,62.88,6.51c3.32-0.74,6.59-1.66,9.83-2.68
			c-1.05-0.8-2.11-1.61-3.16-2.41c-0.21,6.64-0.43,13.29-0.64,19.93c0.24-0.59,0.49-1.18,0.73-1.77
			C85,37.67,78.71,43.03,72.66,48.66c-1.4,1.3-0.66,3.68,1.1,4.18c4.66,1.31,9.33,2.63,14.03,3.81c0.99,0.25,1.99,0.51,2.99,0.68
			c0.52,0.09,0.97,0.17,1.48,0.09c1.14-0.16,2.39-1.21,2.23-2.5c-0.17-1.34-1.03-2.5-2.5-2.5c-1.22,0-2.67,1.15-2.5,2.5
			c0.07,0.58,0.19,1.15,0.27,1.73c-0.1-0.71,0.03,0.39,0.05,0.56c0.04,0.41,0.06,0.82,0.09,1.23c0.1,2.04,0.04,4.1-0.15,6.13
			c-0.45,4.72-1.73,9.49-3.88,13.73c-1.86,3.66-4.34,6.99-7.26,9.87c-0.67,0.66-1.36,1.29-2.08,1.9c-0.29,0.25-0.59,0.5-0.89,0.74
			c-0.15,0.12-0.89,0.7-0.59,0.48c-1.26,0.97-2.56,1.9-3.84,2.84c-4.27,3.1-8.42,6.34-12.4,9.8c0.81-0.21,1.62-0.43,2.43-0.64
			c-6.98-2.16-13.18-5.88-19.37-9.68c-4.71-2.89-9.51-5.64-13.74-9.22c-2.98-2.52-5.77-5.25-8.36-8.17
			c0.21,0.81,0.43,1.62,0.64,2.43c0.59-2.13,1.19-4.26,1.78-6.38c0.39-1.4,0.78-2.8,1.17-4.2c0.21-0.76,0.53-1.57,0.56-2.36
			C24.06,62.5,19.06,62.5,18.93,65.71z"/>
	</g>
</g>
<path class="st6" d="M61.81,112.76c-4.22-0.96-10.08-2.63-16.67-5.61c-8.14-3.7-13.61-7.68-19.03-11.69
	c-5.68-4.19-13.1-10.27-21.01-18.62c3.54-15.69,4.05-28.37,3.82-37.25c0,0-0.09-3.57-1.99-28.59c3.64-3.14,7.29-6.29,10.93-9.43
	c2.67,1.3,6.6,3.04,11.5,4.65c12.28,4.02,22,4.35,24.08,4.4c3.52,0.09,8.45-0.03,14.34-0.99C65.79,44.01,63.8,78.38,61.81,112.76z"
	/>
</svg>
