<?xml version="1.0" encoding="utf-8"?>
<!-- Generator: Adobe Illustrator 25.2.1, SVG Export Plug-In . SVG Version: 6.00 Build 0)  -->
<svg version="1.1" id="Capa_1" xmlns="http://www.w3.org/2000/svg" xmlns:xlink="http://www.w3.org/1999/xlink" x="0px" y="0px"
	 viewBox="0 0 28.4 28.4" style="enable-background:new 0 0 28.4 28.4;" xml:space="preserve">
<style type="text/css">
	.st0{opacity:0.46;fill:#65ABCE;enable-background:new    ;}
</style>
<path class="st0" d="M27.3,14.6c-0.2,3.2-3,5.3-4.6,6.5c-2.9,2.1-5.9,2.6-7.6,2.7c-0.9,0.1-5.3,0.2-9.3-2.7C4.5,20.2,2.8,19,2,16.8
	C0.5,13,1.9,8.2,4.3,7.2C4.9,6.9,5,6.9,8.6,6.8c0.7,0,1.6-0.1,2.6-0.3c4.4-0.8,4.9-2.4,7.3-1.9c2.3,0.5,4.1,1.9,5.4,3.2
	C25.3,9.3,27.5,11.5,27.3,14.6z"/>
</svg>
