<?xml version="1.0" encoding="utf-8"?>
<!-- Generator: Adobe Illustrator 26.2.1, SVG Export Plug-In . SVG Version: 6.00 Build 0)  -->
<svg version="1.1" id="Capa_1" xmlns="http://www.w3.org/2000/svg" xmlns:xlink="http://www.w3.org/1999/xlink" x="0px" y="0px"
	 viewBox="0 0 113.4 113.4" style="enable-background:new 0 0 113.4 113.4;" xml:space="preserve">
<style type="text/css">
	.st0{fill:#E2905A;}
	.st1{fill:#86B592;}
	.st2{fill:#80AA89;}
	.st3{fill:#7CA383;}
</style>
<path class="st0" d="M122.9-44.1"/>
<polygon class="st1" points="106.4,85.1 55.8,112.4 6,84 6.7,28.3 57.3,1 107.1,29.4 "/>
<path class="st2" d="M55.8,112.4C39.5,99.2,23.1,86.1,6.7,72.9V28.3C23.6,19.2,40.4,10.1,57.3,1C56.8,38.1,56.3,75.3,55.8,112.4z"/>
<path class="st3" d="M57.3,58.8c16.4,8.8,32.8,17.5,49.1,26.3c0.2-18.6,0.5-37.1,0.7-55.7C73.7,29,40.2,28.7,6.7,28.3
	C23.6,38.4,40.4,48.6,57.3,58.8z"/>
<path class="st3" d="M6.7,72.9c0-10.5,0-21.1,0-31.6C23.1,65,39.5,88.7,55.8,112.4C39.5,99.2,23.1,86.1,6.7,72.9z"/>
</svg>
