<?xml version="1.0" encoding="utf-8"?>
<!-- Generator: Adobe Illustrator 25.2.1, SVG Export Plug-In . SVG Version: 6.00 Build 0)  -->
<svg version="1.1" id="Capa_1" xmlns="http://www.w3.org/2000/svg" xmlns:xlink="http://www.w3.org/1999/xlink" x="0px" y="0px"
	 viewBox="0 0 113.39 113.39" style="enable-background:new 0 0 113.39 113.39;" xml:space="preserve">
<style type="text/css">
	.st0{fill:#E99C67;}
	.st1{fill:#E2905A;}
	.st2{fill:#DB9A6E;}
	.st3{fill:#F4EEEA;}
	.st4{fill:#FFFFFF;}
	.st5{opacity:0.38;fill:#CE7F54;}
</style>
<path class="st0" d="M49.43,23.59"/>
<path class="st1" d="M99.53,78.68c-2.56,4.27-5.89,9.02-10.21,13.82c-9.61,10.67-20,17.02-27.51,20.71
	c-9.4-2.83-22.3-7.89-35.7-17.3C17.14,89.62,10.23,82.99,5.1,77.29c3.83-15.76,4.24-28.38,3.82-37.25
	c-0.3-6.34-0.87-15.88-2.15-25.43c-0.19-1.42-0.36-2.59-0.48-3.38c3.79-3.37,7.59-6.74,11.38-10.11
	c7.32,3.73,22.55,10.23,42.58,9.55c14.76-0.5,26.29-4.71,33.19-7.88c3.47,2.07,6.95,4.13,10.42,6.2v0.02
	c0.64,15.15-0.44,26.16-1.48,37.38C101.73,53.46,100.78,63.93,99.53,78.68z"/>
<path class="st2" d="M96.01,77c-2.36,3.93-5.43,8.31-9.41,12.74c-8.85,9.84-18.44,15.69-25.36,19.09
	c-8.67-2.61-20.55-7.28-32.91-15.95c-8.27-5.8-14.64-11.91-19.37-17.17c3.53-14.53,3.91-26.16,3.52-34.34
	c-0.27-5.85-0.8-14.64-1.98-23.44c-0.18-1.31-0.33-2.38-0.44-3.12c3.5-3.11,6.99-6.21,10.49-9.32c6.75,3.44,20.79,9.44,39.25,8.8
	c13.61-0.47,24.23-4.35,30.6-7.26c3.2,1.9,6.4,3.81,9.6,5.71v0.02c0.59,13.97-0.4,24.12-1.36,34.46
	C98.04,53.75,97.17,63.41,96.01,77z"/>
<path class="st1" d="M118-42"/>
<g>
	<path class="st3" d="M35.46,75.86c-2.57-2.9-3-4.73-3.13-5.77c-0.34-2.79,0.86-5.03,1.46-5.99c-3.37-0.78-6.85-1.08-10.31-0.86
		c-0.37,0.02-0.77,0.06-1.07,0.29c-0.32,0.25-0.45,0.68-0.56,1.07c-1.04,3.8-2.09,7.61-3.13,11.41c-0.11,0.41-0.22,0.83-0.14,1.24
		c0.15,0.76,0.8,1.22,1.05,1.39c17.73,12.44,22.08,14.38,22.08,14.38c4.7,2.1,11.57,5.29,20.09,9.71c4.31-2.3,12.98-7.31,18.84-13.5
		c4.52-4.77,11.2-13.49,11.21-13.49c0.38-2.86,0.72-5.77,1.03-8.74c0.95-9.12,1.48-17.87,1.69-26.2
		c-12.03,3.83-22.12,5.14-29.09,5.61c-3.95,0.26-8.53,0.55-14.59,0.03c-7.44-0.64-16.32-2.42-16.32-2.42
		c1.79-5.71,3.57-11.43,5.36-17.14c3.22,1.03,7.67,2.32,13.07,3.43c4.76,0.98,8.36,1.72,13.29,1.93c1.19,0.05,0.89,0,14.46-0.78
		c1.55-0.09,5.09-0.29,9.7-1c0.02,0,0.03,0,0.03,0c0.25-1.64,0.47-3.33,0.66-5.07c0.32-2.91,0.53-5.7,0.64-8.36
		c-5.33,1.87-14.44,4.56-24.88,4.9c-5.87,0.19-11.64-0.44-13.94-0.69c-1.53-0.16-2.96-0.34-4.29-0.52
		c-3.89-0.54-6.78-1.11-8.59-1.47c-9.38-1.87-19.16-3.91-20.66-4.23c1.54,3.16,4.26,9.86,3.71,18.57c-0.4,6.3-2.34,11.16-3.79,14.07
		c14.28,6.62,25.68,8.36,32.8,8.82c3.56,0.23,7.25,0.23,8.62,0.22c13.26-0.1,25.44-2.18,25.44-2.18c-0.53,2.82-0.98,5.9-1.29,9.21
		c-0.39,4.26-0.49,8.2-0.4,11.74c-4.33,2.18-8.65,4.37-12.98,6.55c-3.14,1.59-6.28,3.17-9.43,4.76
		c-13.81-2.48-17.95-4.44-17.95-4.44C42.53,81.56,38.8,79.63,35.46,75.86z"/>
	<g>
		<path class="st4" d="M37.22,74.09c-0.74-0.85-1.36-1.73-1.91-2.71c-0.25-0.45-0.12-0.13-0.28-0.65c-0.09-0.29-0.14-0.6-0.23-0.89
			c-0.11-0.33,0.02,0.12,0.02,0.24c-0.02-0.36-0.06-0.71-0.06-1.07c0.01-0.5,0.07-0.96,0.2-1.44c0.22-0.84,0.51-1.46,0.98-2.22
			c0.81-1.33,0.07-3.32-1.49-3.67c-3.55-0.8-7.33-1.25-10.97-0.95c-2.03,0.17-3.36,1.08-3.99,3.05c-0.56,1.77-0.99,3.59-1.48,5.38
			c-0.5,1.82-1,3.65-1.5,5.47c-0.52,1.9-0.7,3.76,0.8,5.3c1.12,1.16,2.69,2,4.01,2.92c1.33,0.92,2.67,1.85,4.01,2.76
			c4.79,3.27,9.63,6.81,14.82,9.42c2.7,1.36,5.5,2.51,8.23,3.81c2.93,1.4,5.84,2.83,8.74,4.3c1.6,0.81,3.83,2.59,5.65,1.89
			c1-0.39,1.94-1.02,2.87-1.55c5.12-2.92,10.1-6.23,14.46-10.21c3.94-3.59,7.27-7.86,10.59-12.01c1.08-1.36,2.36-2.72,3.29-4.19
			c0.42-0.67,0.41-1.51,0.51-2.27c0.12-0.96,0.24-1.93,0.36-2.89c0.25-2.12,0.49-4.25,0.7-6.38c0.82-8.22,1.33-16.46,1.54-24.71
			c0.04-1.58-1.64-2.89-3.16-2.41c-16.1,5.09-33.18,7.21-49.95,4.72c-2.91-0.43-5.83-0.92-8.72-1.5c0.58,1.03,1.16,2.05,1.75,3.08
			c1.79-5.71,3.57-11.43,5.36-17.14c-1.03,0.58-2.05,1.16-3.08,1.75c4.44,1.42,8.96,2.58,13.53,3.52c4.5,0.92,9.05,1.81,13.66,1.93
			c3.48,0.09,7.04-0.36,10.51-0.56c4.75-0.28,9.47-0.59,14.18-1.32c0.76-0.12,1.63-0.98,1.75-1.75c0.7-4.67,1.18-9.37,1.4-14.1
			c0.07-1.55-1.67-2.94-3.16-2.41c-9.48,3.32-19.4,5.16-29.47,4.79c-9.82-0.36-19.39-2.24-28.99-4.2
			c-4.19-0.85-8.38-1.72-12.57-2.59c-2.21-0.46-3.79,1.68-2.82,3.67c0.84,1.73,1.46,3.32,2.07,5.43c0.8,2.75,1.26,5.56,1.36,8.43
			c0.18,5.63-1.08,11.35-3.5,16.26c-0.55,1.12-0.4,2.82,0.9,3.42c9.4,4.34,19.27,7.47,29.56,8.74c9.83,1.22,19.92,0.69,29.74-0.37
			c3.17-0.34,6.34-0.73,9.49-1.26c-1.03-1.03-2.05-2.05-3.08-3.08c-1.32,7.13-1.94,14.37-1.77,21.62c0.41-0.72,0.83-1.44,1.24-2.16
			c-7.47,3.77-14.94,7.54-22.4,11.31c0.64-0.08,1.28-0.17,1.93-0.25c-5.52-1-11.14-2.04-16.46-3.87c-0.39-0.14-0.78-0.31-1.18-0.43
			c-0.39-0.13,0.7,0.36,0.33,0.14c-0.12-0.07-0.25-0.12-0.38-0.18C42.1,78.57,39.46,76.57,37.22,74.09
			c-2.16-2.39-5.69,1.15-3.54,3.54c3.31,3.65,7.47,6.48,12.17,7.98c2.77,0.88,5.6,1.56,8.44,2.18c2.3,0.5,4.61,0.98,6.93,1.37
			c1.67,0.28,2.87-0.56,4.31-1.29c1.21-0.61,2.43-1.23,3.64-1.84c5.54-2.8,11.08-5.59,16.62-8.39c0.76-0.38,1.26-1.33,1.24-2.16
			c-0.15-6.8,0.36-13.6,1.6-20.29c0.37-1.98-1.12-3.41-3.08-3.08c-2.5,0.43-4.25,0.64-6.74,0.93c-5.42,0.62-10.87,1.04-16.33,1.14
			c-4.41,0.09-8.84,0.01-13.23-0.44c-3.64-0.37-7.57-1.1-11.38-2.07c-5.93-1.51-11.7-3.6-17.25-6.17c0.3,1.14,0.6,2.28,0.9,3.42
			c5.47-11.12,5.46-24.03,0.07-35.17c-0.94,1.22-1.88,2.45-2.82,3.67c19.2,4.02,38.94,9.19,58.64,5.91
			c5.12-0.85,10.15-2.19,15.04-3.91c-1.05-0.8-2.11-1.61-3.16-2.41c-0.19,4.27-0.58,8.54-1.22,12.77c0.58-0.58,1.16-1.16,1.75-1.75
			c-6.83,1.05-13.78,1.2-20.67,1.6c-4.55,0.27-9.01-0.44-13.47-1.34c-5.09-1.03-10.13-2.26-15.08-3.84
			c-1.32-0.42-2.69,0.5-3.08,1.75c-1.79,5.71-3.57,11.43-5.36,17.14c-0.38,1.22,0.45,2.82,1.75,3.08C41,47.84,48.26,49,55.5,49.19
			c7.83,0.21,15.78-0.58,23.49-1.96c5.5-0.98,10.92-2.35,16.25-4.03c-1.05-0.8-2.11-1.61-3.16-2.41
			c-0.3,11.69-1.21,23.35-2.72,34.94c0.11-0.42,0.23-0.84,0.34-1.26c-0.33,0.44,0.43-0.56,0.04-0.05c-0.28,0.35-0.55,0.71-0.83,1.06
			c-0.9,1.15-1.81,2.3-2.73,3.44c-2.28,2.83-4.6,5.66-7.09,8.31c-5.23,5.57-11.85,9.74-18.54,13.33c0.84,0,1.68,0,2.52,0
			c-5.66-2.94-11.38-5.75-17.18-8.4c-1.35-0.62-2.73-1.18-4.03-1.9c-7.01-3.89-13.59-8.64-20.15-13.22
			c-0.13-0.09-0.27-0.19-0.4-0.28c-0.46-0.33-0.54-0.38-0.25-0.16c-0.34-0.4-0.35-0.24-0.02,0.48c0.07-0.3,0.15-0.59,0.23-0.89
			c0.26-0.95,0.52-1.9,0.78-2.85c0.57-2.06,1.13-4.12,1.7-6.18c0.13-0.48,0.26-0.95,0.39-1.43c0.07-0.26,0.14-0.52,0.22-0.78
			c-1.09,0.64-1.22,0.89-0.4,0.74c0.92,0.19,2.12-0.05,3.07-0.02c2.07,0.08,4.09,0.36,6.1,0.81c-0.5-1.22-1-2.45-1.49-3.67
			c-1.5,2.45-2.18,5.35-1.67,8.19c0.45,2.54,2.08,4.7,3.73,6.6c0.89,1.02,2.63,0.91,3.54,0C38.23,76.61,38.11,75.11,37.22,74.09z"/>
	</g>
</g>
<path class="st5" d="M61.81,112.76c-4.22-0.96-10.08-2.63-16.67-5.61c-8.14-3.7-13.61-7.68-19.03-11.69
	c-5.68-4.19-13.1-10.27-21.01-18.62c3.54-15.69,4.05-28.37,3.82-37.25c0,0-0.09-3.57-1.99-28.59c3.64-3.14,7.29-6.29,10.93-9.43
	c2.67,1.3,6.6,3.04,11.5,4.65c12.28,4.02,22,4.35,24.08,4.4c3.52,0.09,8.45-0.03,14.34-0.99C65.79,44.01,63.8,78.38,61.81,112.76z"
	/>
</svg>
