<?xml version="1.0" encoding="utf-8"?>
<!-- Generator: Adobe Illustrator 25.2.1, SVG Export Plug-In . SVG Version: 6.00 Build 0)  -->
<svg version="1.1" id="Capa_1" xmlns="http://www.w3.org/2000/svg" xmlns:xlink="http://www.w3.org/1999/xlink" x="0px" y="0px"
	 viewBox="0 0 113.39 113.39" style="enable-background:new 0 0 113.39 113.39;" xml:space="preserve">
<style type="text/css">
	.st0{fill:#E99C67;}
	.st1{fill:#CCB44E;}
	.st2{fill:#D8C251;}
	.st3{fill:#E2905A;}
	.st4{fill:#F4EEEA;}
	.st5{fill:#FFFFFF;}
	.st6{fill:#F4EEEA;stroke:#FFFFFF;stroke-width:4;stroke-miterlimit:10;}
	.st7{opacity:0.38;fill:#C5AF4E;}
</style>
<path class="st0" d="M49.43,23.59"/>
<path class="st1" d="M99.53,78.68c-2.56,4.27-5.89,9.02-10.21,13.82c-9.61,10.67-20,17.02-27.51,20.71
	c-9.4-2.83-22.3-7.89-35.7-17.3C17.14,89.62,10.23,82.99,5.1,77.29c3.83-15.76,4.24-28.38,3.82-37.25
	c-0.3-6.34-0.87-15.88-2.15-25.43c-0.19-1.42-0.36-2.59-0.48-3.38c3.79-3.37,7.59-6.74,11.38-10.11
	c7.32,3.73,22.55,10.23,42.58,9.55c14.76-0.5,26.29-4.71,33.19-7.88c3.47,2.07,6.95,4.13,10.42,6.2v0.02
	c0.64,15.15-0.44,26.16-1.48,37.38C101.73,53.46,100.78,63.93,99.53,78.68z"/>
<path class="st2" d="M96.01,77c-2.36,3.93-5.43,8.31-9.41,12.74c-8.85,9.84-18.44,15.69-25.36,19.09
	c-8.67-2.61-20.55-7.28-32.91-15.95c-8.27-5.8-14.64-11.91-19.37-17.17c3.53-14.53,3.91-26.16,3.52-34.34
	c-0.27-5.85-0.8-14.64-1.98-23.44c-0.18-1.31-0.33-2.38-0.44-3.12c3.5-3.11,6.99-6.21,10.49-9.32c6.75,3.44,20.79,9.44,39.25,8.8
	c13.61-0.47,24.23-4.35,30.6-7.26c3.2,1.9,6.4,3.81,9.6,5.71v0.02c0.59,13.97-0.4,24.12-1.36,34.46
	C98.04,53.75,97.17,63.41,96.01,77z"/>
<path class="st3" d="M118-42"/>
<g>
	<path class="st4" d="M24.02,65.69c-1.48,1.99-2.96,4.06-4.45,6.2c-0.88,1.27-1.73,2.52-2.56,3.77c6.17,5.81,11.66,10.1,15.76,13.07
		c5,3.62,7.72,5.12,9.97,6.2c4.71,2.26,8.94,3.41,11.92,4.04c1.02-20.53,2.24-41.27,3.65-62.21c0.41-6.05,0.83-12.07,1.27-18.08
		c-3.29,2.84-8.95,6.83-16.84,8.55c-3.37,0.74-7.95,1.68-13.54,0.2c-6.8-1.8-11.01-6.09-12.73-8.08c0.91,2.38,1.86,5.61,2.22,9.5
		c0.24,2.52,0.18,4.78,0,6.67c4.66,1.36,13.25,3.11,23.24,0.61c3.77-0.94,6.95-2.29,9.5-3.64C53.01,48.57,50.37,60.5,48,67.85
		c-3.19,9.9-5.87,11.45-7.54,11.85C35.66,80.86,29.22,75.25,24.02,65.69z"/>
	<g>
		<path class="st5" d="M21.86,64.43c-2.42,3.26-4.75,6.59-7.01,9.97c-0.59,0.89-0.38,2.31,0.39,3.03
			c6.11,5.74,12.65,11.12,19.62,15.8c5.82,3.9,12.28,6.68,19.14,8.15c1.64,0.35,3.08-0.73,3.16-2.41
			c1.04-20.91,2.27-41.81,3.68-62.7c0.4-5.87,0.81-11.73,1.23-17.59c0.17-2.34-2.76-3.06-4.27-1.77
			c-8.83,7.58-23.14,12.19-33.95,5.52c-2.13-1.31-3.96-2.94-5.63-4.85c-1.6-1.83-5.06,0.11-4.18,2.43c1.88,4.98,2.6,10.2,2.13,15.5
			c-0.1,1.09,0.85,2.12,1.84,2.41c11.57,3.34,23.95,2.3,34.66-3.28c-1.25-0.72-2.51-1.44-3.76-2.16
			c1.03,10.75,0.41,21.63-2.54,32.05c-0.68,2.4-1.44,4.81-2.42,7.11c-0.38,0.87-0.79,1.74-1.26,2.57c-0.2,0.36-0.42,0.72-0.65,1.07
			c-0.12,0.18-0.25,0.36-0.38,0.55c-0.34,0.49,0.24-0.27-0.09,0.12c-0.2,0.24-0.41,0.47-0.64,0.68c-0.09,0.08-0.2,0.16-0.28,0.25
			c-0.31,0.38,0.48-0.3,0.08-0.06c-0.17,0.1-0.34,0.21-0.5,0.31c-0.55,0.36,0.39-0.03-0.05,0.03c-0.13,0.02-0.29,0.08-0.42,0.12
			c-0.12,0.03-0.77,0.08-0.17,0.04c-0.14,0.01-0.29,0.03-0.43,0.02c-0.22-0.01-0.44-0.01-0.66-0.03c0.48,0.05,0.09,0.01-0.01-0.01
			c-0.47-0.11-0.93-0.23-1.38-0.41c0.43,0.17-0.35-0.18-0.35-0.17c-0.24-0.12-0.48-0.26-0.72-0.39c-0.5-0.3-0.99-0.62-1.45-0.98
			c-0.91-0.71-1.86-1.65-2.68-2.55c-2.3-2.51-4.14-5.39-5.77-8.37c-1.55-2.82-5.87-0.3-4.32,2.52c2.83,5.16,6.52,10.62,11.7,13.69
			c2.95,1.74,6.86,2.53,9.83,0.43c3.78-2.68,5.49-7.91,6.87-12.09c1.48-4.49,2.54-9.12,3.2-13.8c1.07-7.53,1.2-15.12,0.47-22.69
			c-0.18-1.91-1.98-3.09-3.76-2.16c-9.53,4.97-20.54,5.75-30.81,2.78c0.61,0.8,1.22,1.61,1.84,2.41c0.5-5.69-0.29-11.49-2.31-16.83
			c-1.39,0.81-2.79,1.62-4.18,2.43c4.14,4.75,9.91,8.21,16.17,9.22c7.4,1.19,15.38-0.76,21.99-4.12c3.06-1.56,5.89-3.54,8.49-5.77
			c-1.42-0.59-2.85-1.18-4.27-1.77c-1.52,20.87-2.85,41.75-3.99,62.64c-0.32,5.88-0.63,11.77-0.92,17.65
			c1.05-0.8,2.11-1.61,3.16-2.41c-6.48-1.39-12.45-3.96-17.94-7.64c-6.62-4.44-12.8-9.56-18.61-15.02c0.13,1.01,0.26,2.02,0.39,3.03
			c2.25-3.38,4.59-6.7,7.01-9.97c0.8-1.09,0.18-2.79-0.9-3.42C24.01,62.79,22.67,63.34,21.86,64.43z"/>
	</g>
</g>
<g>
	<path class="st6" d="M70.64,83l3.43-20.57c0,0-2.77,0.17-7.07,0.43c-0.64,6.04-1.23,12.16-1.78,18.38
		c-0.53,5.95-1,11.82-1.43,17.62c3.59-1.17,10.22-3.86,16.07-10.07c4.64-4.92,6.63-9.75,8.36-14.06c0.76-1.9,10.01-24.98,2.36-30.94
		c-4.76-3.71-11.25,1.33-15.36-2.96c-3.64-3.8-3.06-12.72,1.86-16.76c2.85-2.34,7.56-3.37,9.36-1.59c0,0,1,0.99-0.14,10.16
		c2.64-0.07,5.29-0.14,7.93-0.21c-0.26,3.73,0.68-7.49,0.37-11.22c-0.4-4.78-0.56-7.46-2.38-8.54c-2.1-1.25-4.69,0.62-9.85,2.41
		c-5,1.74-9.32,2.34-12.14,2.57c-0.09,3.65-0.34,8.99-1.07,15.43c-1.1,9.79-2.36,13.7-0.05,15.92c3.28,3.14,9.21-1.37,13,1.27
		c2.71,1.89,4.13,7.48-0.31,22.88C74.54,79.56,70.64,83,70.64,83z"/>
</g>
<path class="st7" d="M61.81,112.76c-4.22-0.96-10.08-2.63-16.67-5.61c-8.14-3.7-13.61-7.68-19.03-11.69
	c-5.68-4.19-13.1-10.27-21.01-18.62c3.54-15.69,4.05-28.37,3.82-37.25c0,0-0.09-3.57-1.99-28.59c3.64-3.14,7.29-6.29,10.93-9.43
	c2.67,1.3,6.6,3.04,11.5,4.65c12.28,4.02,22,4.35,24.08,4.4c3.52,0.09,8.45-0.03,14.34-0.99C65.79,44.01,63.8,78.38,61.81,112.76z"
	/>
</svg>
