<?xml version="1.0" encoding="utf-8"?>
<!-- Generator: Adobe Illustrator 25.2.1, SVG Export Plug-In . SVG Version: 6.00 Build 0)  -->
<svg version="1.1" id="Capa_1" xmlns="http://www.w3.org/2000/svg" xmlns:xlink="http://www.w3.org/1999/xlink" x="0px" y="0px"
	 viewBox="0 0 28.3 28.3" style="enable-background:new 0 0 28.3 28.3;" xml:space="preserve">
<style type="text/css">
	.st0{fill:#EDF4F4;stroke:#878787;stroke-width:1.000000e-02;stroke-miterlimit:10;}
	.st1{fill:#DCE0E0;}
	.st2{fill:#D6E5D9;}
	.st3{fill:none;stroke:#D7D8D8;stroke-width:1.000000e-02;stroke-miterlimit:10;}
	.st4{opacity:0.44;}
	.st5{opacity:0.44;fill:#68ACD6;stroke:#000000;stroke-width:0.5;stroke-miterlimit:10;}
</style>
<path class="st0" d="M24.8,27.3H4.1V1h20.8c0,4,0,8,0,12C24.8,17.8,24.8,22.6,24.8,27.3z"/>
<rect x="6.5" y="8.9" class="st1" width="14.8" height="1.5"/>
<rect x="6.7" y="11.4" class="st1" width="14.8" height="0.8"/>
<rect x="6.7" y="13.1" class="st1" width="14.8" height="0.8"/>
<rect x="6.7" y="14.3" class="st1" width="14.8" height="0.8"/>
<rect x="6.7" y="16.2" class="st1" width="14.8" height="0.8"/>
<rect x="6.7" y="17.6" transform="matrix(-1 -1.224647e-16 1.224647e-16 -1 19.4863 35.9092)" class="st1" width="6.2" height="0.8"/>
<rect x="6.7" y="19.4" transform="matrix(-1 -1.224647e-16 1.224647e-16 -1 19.4863 39.5337)" class="st1" width="6.2" height="0.8"/>
<rect x="6.7" y="20.7" transform="matrix(-1 -1.224647e-16 1.224647e-16 -1 19.4863 42.1254)" class="st1" width="6.2" height="0.8"/>
<rect x="6.7" y="22" transform="matrix(-1 -1.224647e-16 1.224647e-16 -1 19.4863 44.717)" class="st1" width="6.2" height="0.8"/>
<rect x="6.7" y="23.3" transform="matrix(-1 -1.224647e-16 1.224647e-16 -1 19.4863 47.3086)" class="st1" width="6.2" height="0.8"/>
<rect x="13.8" y="17.6" class="st2" width="8.1" height="6.5"/>
<rect x="15.3" y="3.2" transform="matrix(-1 -1.224647e-16 1.224647e-16 -1 36.7388 7.1422)" class="st1" width="6.2" height="0.8"/>
<circle class="st3" cx="17.9" cy="11.6" r="5.6"/>
<path class="st4" d="M3.3,22.5l-0.5-0.7L13,14.7c0,0,0.3,0,0.4,0.3c0.1,0.2,0.1,0.4,0.1,0.5C10.1,17.8,6.7,20.2,3.3,22.5z"/>
<circle class="st5" cx="17.9" cy="11.4" r="5.6"/>
</svg>
