<?xml version="1.0" encoding="utf-8"?>
<!-- Generator: Adobe Illustrator 26.0.0, SVG Export Plug-In . SVG Version: 6.00 Build 0)  -->
<svg version="1.1" id="Capa_1" xmlns="http://www.w3.org/2000/svg" xmlns:xlink="http://www.w3.org/1999/xlink" x="0px" y="0px"
	 viewBox="0 0 55 40" style="enable-background:new 0 0 55 40;" xml:space="preserve">
<style type="text/css">
	.st0{fill:#A98D6A;}
	.st1{fill:#8F7259;}
	.st2{fill:#9E8374;}
	.st3{fill:#C1B3A3;}
	.st4{fill:#A99286;}
</style>
<path class="st0" d="M47.59,36.31c-2.13,0.99-4.15,0.76-4.91,0.68c-5.8-0.59-16.25-0.2-19.23-0.03c0,0-7.53,0.42-14.13-0.19
	c-1.02-0.1-3.29-0.36-3.86-1.73c-0.14-0.34-0.14-0.66-0.13-0.86V13.46c0-1.59,1.29-2.89,2.89-2.89h39.27c1.59,0,2.89,1.29,2.89,2.89
	v20.72C49.84,34.79,48.93,35.68,47.59,36.31z"/>
<path class="st1" d="M50.41,22.97H5.61c-0.32,0-0.58-0.26-0.58-0.58v-11.8c0-0.32,0.26-0.58,0.58-0.58h44.8
	c0.32,0,0.58,0.26,0.58,0.58v11.8C51,22.71,50.74,22.97,50.41,22.97z"/>
<path class="st2" d="M49.54,21.91c-2.09,0.13-5.32,0.28-9.29,0.31c-3.45,0.02-4.78-0.08-7.87-0.05c-5.07,0.04-7.39,0.34-10.58,0.48
	c-3.62,0.16-8.81,0.14-15.31-0.73c-0.03,0-0.21,0-0.35-0.14c-0.09-0.09-0.15-0.2-0.15-0.33V10.44c0-0.13,0.06-0.25,0.15-0.33
	C6.24,10,6.4,9.98,6.48,9.97c4.03-0.36,5.07-0.11,5.07-0.11c1.9,0.45,2.15-0.21,11.26-0.37c5.98-0.11,5.64,0.18,12.33,0.06
	c2.23-0.04,4.47,0.15,6.68-0.06c0,0,1.24,0.48,7.71,0.48c0.03,0,0.21,0,0.35,0.14c0.09,0.09,0.15,0.2,0.15,0.33v10.99
	C50.04,21.7,49.82,21.91,49.54,21.91z"/>
<path class="st2" d="M13.02,27.49L13.02,27.49c-0.64,0-1.15-0.52-1.15-1.15v-0.79c0-0.64,0.52-1.15,1.15-1.15h0
	c0.64,0,1.15,0.52,1.15,1.15v0.79C14.17,26.97,13.66,27.49,13.02,27.49z"/>
<path class="st2" d="M43.16,27.24L43.16,27.24c-0.64,0-1.15-0.52-1.15-1.15V25.3c0-0.64,0.52-1.15,1.15-1.15h0
	c0.64,0,1.15,0.52,1.15,1.15v0.79C44.31,26.73,43.8,27.24,43.16,27.24z"/>
<path class="st3" d="M13.35,25.94h-0.65c-0.63,0-1.14-0.51-1.14-1.14v-2.92c0-0.63,0.51-1.14,1.14-1.14h0.65
	c0.63,0,1.14,0.51,1.14,1.14v2.92C14.49,25.43,13.98,25.94,13.35,25.94z"/>
<path class="st3" d="M43.49,25.57h-0.65c-0.63,0-1.14-0.51-1.14-1.14v-2.92c0-0.63,0.51-1.14,1.14-1.14h0.65
	c0.63,0,1.14,0.51,1.14,1.14v2.92C44.63,25.06,44.12,25.57,43.49,25.57z"/>
<path class="st2" d="M13.95,25.14h-1.82c-0.13,0-0.24-0.11-0.24-0.24v-2.61c0-0.13,0.11-0.24,0.24-0.24h1.82
	c0.13,0,0.24,0.11,0.24,0.24v2.61C14.19,25.03,14.08,25.14,13.95,25.14z"/>
<path class="st2" d="M44.07,24.87h-1.82c-0.13,0-0.24-0.11-0.24-0.24v-2.61c0-0.13,0.11-0.24,0.24-0.24h1.82
	c0.13,0,0.24,0.11,0.24,0.24v2.61C44.31,24.76,44.2,24.87,44.07,24.87z"/>
<path class="st4" d="M41.38,12.78c-6.26,0.53-13.12,0.76-20.49,0.51c-3.44-0.12-6.74-0.33-9.91-0.62c-2.69-0.02-4.04-0.12-4.05-0.28
	c-0.01-0.12,0.63-0.27,1.9-0.45c12.83,0,25.66,0,38.49,0c1.14,0.47,2.01,0.92,1.95,1.16c-0.06,0.23-0.91,0.22-2.97,0.08
	C44.92,13.09,43.26,12.96,41.38,12.78z"/>
<rect x="11.79" y="23.91" class="st3" width="2.49" height="0.47"/>
<rect x="41.92" y="23.6" class="st3" width="2.49" height="0.47"/>
</svg>
